<?xml version="1.0" encoding="utf-8"?>
<!-- Generator: Adobe Illustrator 23.0.2, SVG Export Plug-In . SVG Version: 6.00 Build 0)  -->
<svg version="1.1" id="Capa_1" xmlns="http://www.w3.org/2000/svg" xmlns:xlink="http://www.w3.org/1999/xlink" x="0px" y="0px"
	 viewBox="0 0 567.7 191.6" style="enable-background:new 0 0 567.7 191.6;" xml:space="preserve">
<style type="text/css">
	.st0{fill:#5CDB94;}
	.st1{fill:#587377;}
	.st2{fill:#5DDB94;}
	.st3{fill:#68DE9C;}
	.st4{fill:#6BDE9E;}
	.st5{fill:#69DE9D;}
	.st6{fill:#66DD9B;}
	.st7{fill:#65DD9A;}
	.st8{fill:#6DDF9F;}
</style>
<g>
	<path class="st0" d="M325.8,89c0-17.9,0-35.9,0-53.8c0-2,0.1-4,0.8-6c0.8-2.1,2-3.9,3.9-5.1c0.9-0.5,1.8-0.8,2.8-0.9
		c3.9-0.1,7.8-0.2,11.6-0.2c1.4,0,2.7,0.2,4,0.5c1.7,0.4,3.1,1.4,4,2.9c4.5,7,8.9,14,13.4,21c4.5,7.1,9,14.1,13.6,21.2
		c2.5,4,5.1,7.9,7.6,11.9c0.1,0.1,0.2,0.3,0.3,0.4c0.5,0.8,1.2,1.5,2.2,1.4c1-0.1,1.9-0.8,2.2-1.8c0.3-0.8,0.5-1.7,0.5-2.5
		c0-14.6,0-29.3,0-43.9c0-2.9,0.7-5.7,2.5-8c1.4-1.8,3.2-2.9,5.6-2.9c3.9,0,7.8-0.1,11.8-0.1c1.8,0,3.5,0.3,5.2,1.1
		c2.7,1.2,4.1,3.4,4.7,6.1c0.3,1.4,0.5,2.9,0.5,4.4c0,36.2,0,72.4,0,108.7c0,1.9-0.2,3.8-0.8,5.6c-1.1,3.1-3.3,4.9-6.4,5.5
		c-2.9,0.6-5.8,0.7-8.7,0.4c-1.3-0.1-2.7-0.3-4.1,0.1c-1,0.3-1.8-0.5-2.5-1.1c-1.4-1.4-2.9-2.8-4.1-4.3c-2.7-3.4-5.3-6.7-7.7-10.3
		c-5.1-7.5-10.1-15-15.1-22.5c-3.9-5.9-7.8-11.9-11.8-17.8c-0.5-0.8-1.1-1.4-1.8-2.1c-0.9-0.9-2-0.9-3,0c-0.9,0.8-1.1,1.9-1.2,3
		c0,0.3,0,0.7,0,1c0,14.3,0,28.7,0,43c0,2.9-0.7,5.6-2.5,7.9c-1.6,2.1-3.6,3.1-6.3,3c-2.3-0.1-4.6,0.2-6.9,0.2
		c-2.2,0.1-4.4,0-6.7-0.4c-4.3-0.8-6.8-3.5-7.5-7.5c-0.2-1.5-0.3-3-0.3-4.4C325.8,124.8,325.8,106.9,325.8,89z"/>
	<path class="st1" d="M0,91.1C0,78.9,1.6,68.8,5,59c2.5-7.1,5.9-13.6,10.7-19.4c2.8-3.5,6.1-6.5,9.8-9c3.6-2.4,7.3-4.2,11.5-5.4
		c4.1-1.2,8.2-1.9,12.4-1.8c3,0,6,0.1,9,0.2c2.8,0.1,5.5,0.8,8.1,1.6c2.1,0.6,4.1,1.4,6.1,2.3c3.3,1.6,6.4,3.6,9.2,6
		c8,6.8,13.1,15.5,16.6,25.2c2.2,6.1,3.6,12.4,4.4,18.9c0.6,4.8,0.8,9.6,0.7,14.5c-0.3,10.3-2.1,20.3-5.8,29.9
		c-2.4,6.2-5.5,12-9.8,17.1c-3.7,4.6-8.1,8.4-13.3,11.3c-3.8,2-7.7,3.5-11.9,4.3c-3.5,0.7-6.9,0.9-10.5,0.9c-2.1,0-4.1-0.1-6.2-0.1
		c-3.4-0.1-6.8-0.9-10.1-2c-3.7-1.2-7.1-2.9-10.3-5c-3.5-2.3-6.6-5.2-9.4-8.4c-4.1-4.8-7.3-10.1-9.7-15.9c-2.9-6.7-4.7-13.7-5.8-21
		C0.3,98.6,0,94,0,91.1z M72.5,89.6c-0.1-4.4-0.5-8.8-1.8-13.1c-1.2-4.2-3-8.1-5.9-11.3c-2.4-2.6-5.3-4.5-8.8-5.1
		c-2.9-0.5-5.7-0.4-8.6,0.2c-2.3,0.5-4.2,1.5-6.1,2.9c-2.8,2.2-4.8,5.1-6.3,8.3C32.3,77,31.3,83,31.2,89.1c-0.1,3.3,0.3,6.5,0.9,9.7
		c1,5,2.7,9.8,5.9,13.9c3,3.9,6.9,6.3,11.9,6.7c1.2,0.1,2.4,0.1,3.6,0c3.6-0.1,6.7-1.4,9.5-3.8c2.7-2.3,4.5-5.1,5.9-8.3
		C71.4,101.8,72.3,95.8,72.5,89.6z"/>
	<path class="st0" d="M470.5,88.9c0-19.4,0-38.7,0-58.1c0-1.6,0.2-3.1,0.9-4.6c0.3-0.6,0.7-1.1,1.1-1.6c0.9-1,2-1.5,3.4-1.5
		c3.4,0,6.8,0,10.2,0c3.1,0,6.1,0.1,9.2,0c2.6-0.1,4.1,0.9,5.4,3.7c0.4,0.9,0.5,1.9,0.6,2.9c0.1,0.6,0,1.2,0,1.7c0,12,0,23.9,0,35.9
		c0,2.4,0.7,4.6,2.6,6.2c0.3,0.3,0.7,0.6,1.2,0.7c2.2,0.6,4.4,0.6,6.5-0.3c1.4-0.6,2.1-1.8,2.6-3.2c0.7-1.9,1.4-3.8,2.1-5.7
		c3.2-8.3,6.4-16.6,9.5-24.9c1.6-4.3,3.3-8.6,4.9-12.8c0.4-1.1,1-2.2,1.9-3c0.9-0.8,1.9-1.2,3-1.2c7,0,14.1,0,21.1,0
		c1.7,0,2.9,0.8,3.8,2.1c1.9,2.9,2,5.9,0.7,9c-1.9,4.4-3.8,8.7-5.7,13c-4.3,9.6-8.5,19.3-12.8,28.9c-1.6,3.6-3.2,7.1-4.7,10.6
		c-1.1,2.5-1.2,5.1-0.2,7.6c0.4,1,1.1,2,1.6,2.9c2.8,4.7,5.6,9.5,8.4,14.2c4.5,7.7,9.1,15.4,13.6,23c1.7,2.8,3.4,5.7,5,8.5
		c1.6,3,1.6,6,0,9c-1,1.9-2.6,2.8-4.8,2.8c-6.9,0-13.8,0-20.7,0c-0.3,0-0.7-0.1-1,0c-1.2,0.4-1.9-0.3-2.6-1
		c-1.4-1.7-2.7-3.4-3.9-5.3c-3.7-5.8-7-11.8-10.2-17.8c-3.2-6-6.4-12.1-9.7-18.1c-0.8-1.4-1.6-2.9-3-3.9c-2.2-1.8-5.6-1.4-7.5,0.7
		c-1.3,1.5-1.9,3.2-1.9,5.2c0,10.8,0,21.6,0,32.4c0,1.6-0.2,3.1-0.9,4.6c-1.1,2.2-2.7,3.3-5.2,3.3c-6.2-0.1-12.3-0.1-18.5,0
		c-3.1,0.1-4.9-1.6-5.8-4.3c-0.3-1-0.5-2.1-0.5-3.2c-0.1-3.4,0-6.8,0-10.2C470.5,121.2,470.5,105.1,470.5,88.9z"/>
	<path class="st1" d="M123,23.1c3.7,0,7.4,0,11.2,0c1.1,0,2,0.4,2.7,1.1c2.1,2.1,3.7,4.5,5.1,7c3.2,5.6,6.3,11.3,9.4,17
		c1,1.7,2,3.4,3.1,5.1c1.1,1.6,2.8,1.6,3.9-0.2c2-3.3,4-6.7,5.8-10.1c2.2-4.2,4.2-8.5,6.4-12.7c0.7-1.3,1.5-2.6,2.4-3.9
		c1.4-2,3.5-3,5.9-3.1c3.5-0.2,6.9-0.2,10.4-0.3c3.8,0,7.6,0.2,11.4,0c4-0.2,5.7,2.6,6.2,5.3c0.5,2.3,0,4.5-1.1,6.6
		c-3.6,6.4-7.1,12.8-10.7,19.1c-4.6,8.3-9.2,16.5-13.8,24.8c-0.8,1.5-1.7,3-2.5,4.5c-1.6,2.9-1.6,5.8,0,8.6
		c2.7,4.9,5.5,9.9,8.3,14.8c6.3,11.2,12.5,22.3,18.8,33.5c0.7,1.2,1.4,2.3,2,3.6c1.4,3,1.3,5.9-0.5,8.7c-1,1.5-2.4,2.3-4.1,2.3
		c-4.2,0.1-8.3,0.2-12.5,0.2c-2,0-4,0.1-6,0c-1.5-0.1-3-0.3-4.5-0.6c-2.3-0.4-4.1-1.8-5.3-3.7c-1.4-2.4-2.8-4.8-4-7.3
		c-3.8-7.5-7.8-15-12.2-22.1c-0.3-0.4-0.6-0.8-1-1.1c-0.8-0.7-1.8-0.7-2.6,0c-0.6,0.6-1.2,1.3-1.6,2c-2,3.8-4,7.7-6,11.5
		c-2.8,5.4-5.4,10.8-8.7,15.8c-0.7,1.1-1.6,2.2-2.4,3.3c-1.1,1.4-2.3,2.1-4.2,2c-5.8-0.2-11.7-0.1-17.5-0.1c-1.4,0-2.8-0.1-4.2,0
		c-3.7,0.2-5.6-2.1-6.3-5.2c-0.5-2.1-0.1-4.2,0.9-6.1c5.2-10,10.8-19.9,16.7-29.5c3.2-5.1,6.3-10.3,9.4-15.5c0.9-1.4,1.6-3,2.2-4.6
		c1.6-3.7,1.7-7.5,0.4-11.4c-1.2-3.4-2.8-6.5-4.6-9.6c-4.5-7.8-9.2-15.5-13.7-23.3c-3-5.2-5.9-10.4-8.8-15.7
		c-1.5-2.7-1.3-5.5,0.1-8.2c1-1.9,2.6-2.8,4.7-2.8C115.5,23.1,119.2,23.1,123,23.1z"/>
	<path class="st2" d="M436.6,23.5c0.2-1.4,0.3-2.6,0.7-3.8c0.8-2.9,2.4-5.2,5.1-6.7c0.6-0.3,0.6-0.7,0.6-1.2c0-2.9,0-5.7,0-8.6
		c0-0.4,0-0.7,0-1.1c0.2-1.3,1-2,2.3-2.1c0.9,0,1.8-0.1,2.7,0c1.9,0.1,2.6,0.9,2.6,2.8c0,2.9,0,5.9,0,8.8c0,0.7,0.2,1.1,0.9,1.6
		c2.9,1.8,4.5,4.4,5.1,7.7c0.2,0.8,0.2,1.6,0.3,2.4c0.9,0.7,1.9,1.3,2.7,2.1c1.8,1.7,2.8,4,3.2,6.4c0.2,1.2,0.2,2.4,0.2,3.6
		c0,35.4,0,70.8,0,106.2c0,3.3-0.7,6.4-2.6,9.1c-1.7,2.5-4,4.1-7.1,4.2c-3.3,0.1-6.6,0.3-9.9,0.2c-2.5-0.1-4.9-0.4-7.2-1.6
		c-2.2-1.1-3.6-2.9-4.5-5.1c-0.8-2.1-1.2-4.3-1.2-6.5c0-15.5,0-30.9,0-46.4c0-20.4,0-40.8,0-61.3c0-3,0.8-5.7,2.7-8.1
		C434.2,24.9,435.4,24.1,436.6,23.5z"/>
	<path class="st1" d="M223.4,23.4c0-2.5,0.6-4.8,1.8-6.8c0.9-1.5,2.1-2.7,3.6-3.5c0.6-0.3,0.8-0.7,0.8-1.3c0-2.9,0-5.7,0-8.6
		c0-0.4,0-0.8,0.1-1.2c0.2-1.2,1-1.9,2.2-1.9c1,0,2-0.1,3,0c1.7,0.1,2.4,0.9,2.4,2.7c0,2.9,0,5.8,0,8.7c0,0.4,0,0.8,0,1.2
		c4.2,2.4,6.1,6.1,6.2,10.8c1.8,0.9,3.3,2.1,4.3,3.8c1.2,2,1.8,4.1,1.8,6.4c0,0.2,0,0.4,0,0.6c0,35.9,0,71.8,0,107.7
		c0,3.1-0.7,6-2.4,8.6c-1.9,2.9-4.6,4.5-8.2,4.5c-3,0-6,0.2-9,0.1c-2.2-0.1-4.5-0.4-6.6-1.4c-2.3-1.1-3.9-2.8-4.8-5.1
		c-0.9-2-1.1-4.1-1.3-6.3c0-0.2,0-0.5,0-0.7c0-35.7,0-71.5,0-107.2c0-1.6,0.2-3.1,0.7-4.6C218.8,26.9,220.5,24.7,223.4,23.4z"/>
	<path class="st1" d="M313.6,77.2c-0.2,5.4-1.2,10.5-3.6,15.3c-2.2,4.3-5.3,7.7-9.4,10.2c-3.1,1.9-6.4,2.9-10,3.5
		c-3.5,0.5-6.9,0.2-10.2-0.7c-4.3-1.2-8.1-3.4-11.2-6.7c-4.9-5-7.1-11.2-7.9-18c-0.6-5.7,0.1-11.2,2.2-16.5
		c2.1-5.4,5.6-9.7,10.6-12.7c2.9-1.7,5.9-2.7,9.2-3.3c3.8-0.7,7.5-0.3,11.1,0.7c4.7,1.3,8.8,4,12,7.7c3.6,4.2,5.6,9.2,6.5,14.6
		C313.2,73.3,313.4,75.3,313.6,77.2z"/>
	<path class="st3" d="M234.3,170.4c0,0.5-0.1,0.9-0.1,1.4c-1.1-0.4-2.1-0.7-3.1-1c-2.9-0.9-5.8-1-8.5,0.7c-1.7,1-2.9,2.6-3.5,4.5
		c-1.2,3.3-1,6.5,0.7,9.6c1.6,2.9,4.2,4.2,7.4,4.5c2,0.2,3.9-0.5,5.8-1c0.4-0.1,0.8-0.3,0.8-0.8c0-2.4,0-4.8,0-7.3
		c-2.3,0-4.5,0-6.8,0c0-0.5,0-0.9-0.1-1.4c2.8-0.1,5.4,0,8.2,0c0.1,0.4,0.1,0.7,0.1,0.9c0,2.7,0,5.5,0,8.2c0,0.7-0.3,1.2-0.9,1.4
		c-2.2,0.8-4.4,1.5-6.8,1.5c-4,0-7-1.8-8.9-5.3c-2.3-4.3-2.3-8.7,0.2-13c1.5-2.5,3.7-4,6.7-4.3C228.7,168.6,231.5,169.1,234.3,170.4
		z"/>
	<path class="st4" d="M543.1,169.2c0,0.5-0.1,0.8-0.1,1.3c-4.1,0-8,0-12.1,0c-0.1,2.8,0,5.6,0,8.5c3.6,0,7.1,0,10.6,0
		c0,0.6,0,1,0,1.6c-3.5,0-7,0-10.4,0c-0.3,1-0.4,7.4-0.1,9.1c4.1,0,8.2,0,12.4,0c0,0.6,0,1,0,1.3c-1,0.3-12.7,0.3-13.9,0
		c0-7.2,0-14.5,0-21.8C530.3,169,541,168.9,543.1,169.2z"/>
	<path class="st4" d="M351.2,170.5c0,2.9,0,5.6,0,8.5c3.6,0,7,0,10.6,0c0,0.6,0,1,0,1.6c-3.5,0-7,0-10.4,0c-0.3,1-0.4,7.7-0.1,9.1
		c4,0,8.1,0,12.3,0c0,0.6,0,1,0.1,1.5c-4.7,0-9.3,0-13.9,0c0-7.3,0-14.6,0-22c4.5,0,9,0,13.5,0c0,0.4,0,0.8,0,1.3
		C359.3,170.5,355.3,170.4,351.2,170.5z"/>
	<path class="st5" d="M291.7,169.1c4.5,0,9,0,13.5,0c0,0.3,0.1,0.5,0.1,0.7c0,0.2,0,0.4-0.1,0.7c-4,0-7.9,0-12.1,0
		c-0.1,2.9,0,5.6,0,8.5c3.6,0,7.1,0,10.6,0c0,0.6,0,1,0,1.6c-3.5,0-7,0-10.6,0c0,3.1,0,6,0,9.1c4.2,0,8.3,0,12.4,0
		c0,0.5,0,0.9,0,1.2c-0.9,0.2-12,0.3-13.8,0.1C291.7,183.7,291.7,176.5,291.7,169.1z"/>
	<path class="st5" d="M420.5,169.1c4.4,0,8.9,0,13.4,0c0,0.4,0,0.8,0.1,1.3c-4.1,0-8,0-11.9,0c-0.3,0.9-0.4,6.3-0.2,8.5
		c3.5,0.2,6.9,0,10.5,0.1c0,0.5,0,1,0,1.6c-3.5,0-7,0-10.5,0c0,3.1,0,6,0,9.1c4.1,0.1,8.2,0,12.3,0c0,0.5,0,0.9,0,1.4
		c-4.6,0-9.1,0-13.6,0C420.3,190.2,420.3,170.6,420.5,169.1z"/>
	<path class="st6" d="M261.2,191c-0.6,0-1,0-1.4,0c-0.5-1.4-1.1-2.7-1.6-4.1c-0.6-1.6-0.5-1.4-1.9-1.4c-2.9,0-5.9,0-8.8,0
		c-1.1,0-1.1,0-1.5,1.1c-0.6,1.5-1.1,2.9-1.7,4.4c-0.5,0-0.9,0-1.4,0c0.1-0.3,0.1-0.6,0.2-0.8c2.5-6.6,5-13.2,7.5-19.8
		c0.6-1.5,0.6-1.5,2.3-1.2C255.6,176.4,258.4,183.6,261.2,191z M246.9,184c3.4,0,6.7,0,10.1,0c-1.6-4.4-3.3-8.7-5.1-13
		C250.2,175.3,248.6,179.6,246.9,184z"/>
	<path class="st6" d="M498.1,191c-0.5,0-0.9,0-1.4,0.1c-0.7-1.8-1.4-3.6-2.1-5.5c-3.8,0-7.5,0-11.3,0c-0.7,1.8-1.4,3.6-2.1,5.4
		c-0.5,0-0.9,0-1.5,0c0.9-2.4,1.8-4.7,2.7-7c1.7-4.5,3.4-9,5.1-13.6c0.5-1.4,0.5-1.4,2.3-1.3C492.5,176.3,495.3,183.6,498.1,191z
		 M489.1,171.1c-0.1,0-0.2,0-0.3,0c-1.6,4.3-3.3,8.5-4.9,12.9c3.4,0,6.7,0,10.1,0C492.3,179.6,490.7,175.3,489.1,171.1z"/>
	<path class="st7" d="M397,183.9c0,2.5,0,4.7,0,7.1c-0.5,0-0.9,0-1.4,0c0-7.2,0-14.4,0-21.7c2.7-0.1,5.4-0.4,8.1-0.1
		c1.3,0.1,2.5,0.3,3.7,0.9c1.6,0.8,2.5,2,2.9,3.7c0.4,1.7,0.5,3.4,0.1,5.1c-0.5,2.1-1.7,3.5-3.7,4.3c-2.4,0.9-4.8,0.9-7.3,0.8
		C398.7,184,398,183.9,397,183.9z M397.1,182.6c2.8,0,5.5,0.3,8.2-0.4c1.6-0.4,2.9-1.2,3.5-2.7c0.8-2.1,0.8-4.2-0.1-6.2
		c-0.2-0.3-0.4-0.6-0.6-0.9c-1.2-1.3-2.7-1.7-4.3-1.8c-2-0.1-4,0-6.1,0c-0.1,0-0.3,0.1-0.4,0.2C397.1,174.6,397.1,178.5,397.1,182.6
		z"/>
	<path class="st7" d="M563.9,171.2c-0.3-0.1-0.7-0.2-1-0.3c-1.8-0.8-3.7-0.9-5.6-0.4c-1.2,0.3-2.2,0.8-3.1,1.8
		c-1.2,1.4-1.2,3,0.1,4.3c1,1,2.2,1.6,3.5,2.1c1.6,0.7,3.2,1.3,4.7,2.1c1.1,0.6,2,1.6,2.6,2.8c1.3,2.8-0.5,5.6-2.4,6.7
		c-2.9,1.7-5.8,1.6-8.8,0.5c-0.5-0.2-1.1-0.4-1.6-0.7c0-0.5,0-1,0-1.6c0.3,0.1,0.5,0.2,0.7,0.3c2.2,0.9,4.4,1.6,6.7,1.1
		c0.9-0.2,1.9-0.5,2.6-1c2.4-1.8,2.1-5.3-0.5-6.7c-1.5-0.8-3-1.4-4.5-2c-1.3-0.5-2.5-1.2-3.6-2.2c-2.3-2.1-2.5-5.4,0.7-7.7
		c1.9-1.4,4.1-1.8,6.5-1.4c0.9,0.1,1.7,0.4,2.5,0.6C564.3,169.8,564.4,170,563.9,171.2z"/>
	<path class="st7" d="M314.4,190c0-0.5,0.1-0.9,0.1-1.4c1.3,0.4,2.4,0.7,3.6,1.1c1.7,0.5,3.4,0.4,5.1-0.1c2.5-0.9,3.2-2.9,2.9-5.1
		c-0.2-1.2-1.2-2-2.3-2.5c-1.4-0.7-2.9-1.3-4.4-1.9c-1.4-0.5-2.6-1.3-3.7-2.3c-2.3-2.2-2-5.6,0.6-7.5c3-2.1,6.2-2,9.4-0.8
		c0.7,0.3,0.7,0.5,0.4,1.7c-0.9-0.3-1.8-0.6-2.7-0.8c-2.1-0.5-4-0.3-5.8,0.9c-0.6,0.4-1.1,0.9-1.5,1.4c-0.9,1.3-0.6,2.9,0.5,3.9
		c0.9,0.9,1.9,1.4,3,1.9c1.2,0.5,2.4,0.9,3.6,1.4c1.4,0.6,2.7,1.5,3.6,2.9c1.5,2.2,0.9,4.9-0.8,6.5c-2.1,2-4.6,2.4-7.3,2.1
		C317.2,191.3,315.8,190.8,314.4,190z"/>
	<path class="st7" d="M268.5,190c0-0.5,0.1-1,0.1-1.4c0.2,0,0.4-0.1,0.5,0c1.5,0.9,3.2,1.2,4.9,1.3c1.8,0.2,3.5-0.1,4.9-1.4
		c2.3-2,1.9-5.2-0.8-6.6c-1.6-0.8-3.2-1.5-4.9-2.1c-1.4-0.5-2.6-1.4-3.7-2.5c-2-2.1-1.5-5.4,0.9-7.1c3-2.1,6.2-2,9.4-0.8
		c0.7,0.3,0.7,0.5,0.4,1.8c-0.4-0.1-0.8-0.3-1.1-0.4c-2.5-1-5-1-7.4,0.4c-0.6,0.3-1.1,0.8-1.5,1.3c-1.2,1.5-0.6,3.7,1.3,4.9
		c0.9,0.5,1.9,0.9,2.8,1.3c1.5,0.7,3,1.2,4.4,2c1.6,1,2.8,2.4,3,4.4c0.2,2.2-0.9,3.8-2.7,5c-2.6,1.7-5.5,1.7-8.5,0.8
		C269.9,190.7,269.2,190.4,268.5,190z"/>
	<path class="st7" d="M372.5,189.9c0-0.4,0-0.8,0.1-1.3c0.2,0,0.4,0,0.5,0.1c1.5,0.9,3.2,1.1,4.9,1.3c1.6,0.2,3.1-0.2,4.4-1
		c2.2-1.3,3-5.3-0.4-7c-1.6-0.8-3.2-1.5-4.9-2.1c-1.4-0.5-2.6-1.4-3.6-2.5c-1.9-2.1-1.5-5.4,1-7.1c3-2.1,6.2-2,9.4-0.8
		c0.7,0.3,0.7,0.5,0.4,1.7c-0.4-0.1-0.8-0.3-1.1-0.4c-2.6-1-5.2-1-7.6,0.6c-1,0.6-1.7,1.4-1.8,2.7c-0.1,1.7,0.8,2.8,2.1,3.5
		c1.5,0.8,3.1,1.4,4.8,2.1c1.7,0.7,3.2,1.6,4.3,3.2c1.2,1.7,1.1,4-0.1,5.7c-1.3,1.7-3,2.7-5.1,3C377.3,191.8,375,191.5,372.5,189.9z
		"/>
	<path class="st7" d="M459.3,170.1c0,0.4,0,0.8-0.1,1.3c-1,0.1-1.7-0.4-2.5-0.6c-1.6-0.5-3.1-0.7-4.8-0.5c-3.1,0.5-5.3,2.1-6.5,5
		c-1.8,4-1,9,1.8,12c2.5,2.6,5.5,3.2,8.8,2.4c1.1-0.3,2.2-0.7,3.4-1.1c0.1,0.5,0.1,0.9,0.2,1.4c-2.5,1.2-5,1.7-7.7,1.3
		c-3.8-0.5-6.4-2.7-7.8-6.2c-1.4-3.3-1.4-6.6-0.2-9.9c1.7-4.7,5.6-6.9,10.5-6.4c1.2,0.1,2.4,0.4,3.6,0.7
		C458.5,169.6,458.9,169.9,459.3,170.1z"/>
	<path class="st5" d="M508.2,189.6c4,0,7.9,0,11.9,0c0.1,0.5,0.1,1,0.1,1.4c-1.4,0.3-12.4,0.2-13.4,0c0-7.2,0-14.5,0-21.8
		c0.4,0,0.8,0,1.4,0C508.2,175.9,508.2,182.7,508.2,189.6z"/>
	<path class="st8" d="M469.6,169.1c0.4,0,0.8,0,1.1,0c0.3,0.9,0.4,19.8,0.1,22c-0.4,0-0.7,0.1-1.1,0.1
		C469.5,190.2,469.4,171.7,469.6,169.1z"/>
</g>
</svg>
