<?xml version="1.0" encoding="utf-8"?>
<!-- Generator: Adobe Illustrator 23.0.2, SVG Export Plug-In . SVG Version: 6.00 Build 0)  -->
<svg version="1.1" id="Capa_1" xmlns="http://www.w3.org/2000/svg" xmlns:xlink="http://www.w3.org/1999/xlink" x="0px" y="0px"
	 viewBox="0 0 400 501.3" style="enable-background:new 0 0 400 501.3;" xml:space="preserve">
<style type="text/css">
	.st0{fill:#FFFFFF;}
	.st1{fill:#5CDB94;}
	.st2{fill:#597377;}
	.st3{fill:#597477;}
	.st4{fill:#5DDB95;}
	.st5{fill:#587377;}
	.st6{fill:#6FDFA0;}
	.st7{fill:#6FE0A4;}
	.st8{fill:#6EE0A3;}
	.st9{fill:#70DF9F;}
	.st10{fill:#6DE0A3;}
	.st11{fill:#6FDFA1;}
	.st12{fill:#70DFA0;}
	.st13{fill:#6DDF9F;}
	.st14{fill:#6EDE9E;}
	.st15{fill:#6FDF9F;}
	.st16{fill:#7BE3AD;}
	.st17{fill:#69DE9D;}
	.st18{fill:#FEFFFF;}
</style>
<g>
	<path class="st0" d="M15.8,360c0,24.2,0,48.3,0,72.5c0,0.9,0,1.7,0,2.6c0.1,2.7,0.8,5.2,2.2,7.5c2.5,4.1,6,6.4,10.9,6.4
		c6.8-0.1,13.5,0,20.3,0c2.9,0,5.5-0.9,7.6-2.8c3-2.7,4.6-6.1,5-10.1c0.1-0.9,0-1.7,0-2.6c0-18.9,0-37.9,0-56.8
		c0-1.2,0.1-2.3,0.3-3.5c0.2-1.1,0.9-2,1.8-2.7c1.3-1,3.2-1,4.4,0.1c0.5,0.4,0.9,0.9,1.3,1.4c1.2,1.5,2.3,3,3.5,4.5
		c5.8,7.6,11.7,15.2,17.5,22.9c8.1,10.6,16.2,21.1,24.3,31.7c3.4,4.4,6.7,8.8,10.1,13.2c2.2,2.8,5.1,4.6,8.7,4.7
		c6.3,0.1,12.5,0,18.8,0c1.9,0,3.6-0.6,5.2-1.5c2.7-1.7,4.6-4,5.7-7c0.9-2.4,1.2-4.9,1.2-7.5c0-48.2,0-96.4,0-144.6
		c0-1.7-0.1-3.3-0.3-5c-0.3-2.8-1.3-5.4-3.1-7.6c-2.3-2.9-5.2-4.7-8.9-4.7c-7.3,0-14.6,0-21.8,0c-2.1,0-4,0.6-5.7,1.8
		c-3,2-4.7,4.8-5.8,8.2c-0.6,1.9-0.6,3.9-0.6,5.8c0,19,0,38,0,57c0,0.7,0,1.3,0,2c-0.1,1.2-0.4,2.4-1.2,3.5
		c-1.1,1.5-3.8,2.5-5.7,0.4c-0.5-0.5-0.9-1.1-1.4-1.7c-6-8.2-12-16.5-18-24.7c-9-12.4-18-24.7-27-37.1c-2.5-3.4-4.9-6.9-7.5-10.2
		c-2.4-3.2-5.6-5-9.7-4.9c-6.6,0.1-13.1,0.1-19.7,0c-3.2,0-5.8,1.1-8.1,3.3c-2.1,2-3.3,4.4-4.1,7.1c-0.5,1.7-0.5,3.4-0.5,5.2
		C15.8,311.1,15.8,335.5,15.8,360z M93.8,222.1c5.6-0.1,11.9-0.7,18.1-2.1c9.5-2.2,18.4-6,26.4-11.7c11.7-8.3,20.2-19.2,26.1-32.2
		c5.5-12.2,8.1-25,8.6-38.3c0.4-9.3-0.3-18.5-2.1-27.6c-2-10-5.3-19.5-10.4-28.3c-4.9-8.6-11.1-16-18.9-22.1
		c-13.2-10.4-28.4-15.4-45-16.2c-6.2-0.3-12.4,0.2-18.5,1.2c-9.9,1.8-19.2,5.2-27.7,10.6c-12.2,7.8-21.2,18.3-27.5,31.2
		c-5.6,11.3-8.5,23.3-9.6,35.8c-0.5,5.7-0.6,11.5-0.2,17.2c0.4,5.8,1.1,11.6,2.3,17.3c2.1,9.9,5.6,19.3,10.9,27.9
		c7.2,11.9,16.7,21.4,29,28C67.1,219.2,79.8,221.9,93.8,222.1z M237.3,359.9c0,25.8,0,51.5,0,77.3c0,0.8,0,1.6,0,2.4
		c0,2.3,0.8,4.4,2.2,6.3c1.5,2,3.5,3,6,3.1c1.6,0,3.2,0,4.8,0c8.3,0,16.6,0,24.9,0c0.9,0,1.9,0,2.8-0.2c2.7-0.7,4.4-2.5,5.5-4.9
		c0.7-1.6,1-3.3,1-5.1c0-11.7,0-23.4,0-35.2c0-2.8,0-5.5,0-8.3c0-1.2,0.1-2.5,0.5-3.7c1-3.1,2.9-5.4,6.2-6.2c1.7-0.4,3.5-0.4,5.2,0
		c2.1,0.4,3.7,1.6,4.9,3.4c1.1,1.7,2.1,3.3,3.2,5c5.3,8.4,10.6,16.9,15.9,25.3c5.4,8.5,10.7,17,16,25.5c1.9,3,4.4,4.5,7.9,4.4
		c6-0.1,12.1,0,18.1,0c5.1,0,10.2,0,15.3,0c3,0,5.2-1.4,6.6-3.9c2.3-4,2.3-8-0.1-12c-0.3-0.5-0.6-1-1-1.5
		c-13.8-20.7-27.6-41.4-41.5-62.1c-2.8-4.2-3.1-8.5-0.8-13c0.2-0.5,0.5-0.9,0.7-1.4c11.4-22.8,22.9-45.7,34.3-68.5
		c0.3-0.6,0.6-1.2,0.8-1.8c1.4-3.6,1.1-7.2-1.1-10.4c-1.5-2.3-3.6-3.6-6.4-3.5c-0.4,0-0.7,0-1.1,0c-9.9,0-19.8,0-29.7,0
		c-0.7,0-1.3,0-2,0c-1.3,0-2.4,0.5-3.5,1.2c-1.1,0.8-2.1,1.8-2.7,3.1c-0.6,1.2-1.1,2.4-1.6,3.6c-3.6,8.3-7.2,16.7-10.8,25
		c-3.6,8.3-7.2,16.7-10.8,25c-0.9,2.1-1.8,4.2-2.7,6.2c-1.6,3.5-4.2,5.5-8.2,5.4c-1,0-2,0-3.1,0c-3.7,0-6.1-2-7.7-5.2
		c-0.8-1.7-1-3.6-1-5.5c0-11.9,0-23.9,0-35.8c0-4.3,0-8.6,0-12.9c0-1.7-0.3-3.4-1-4.9c-1.5-3.2-3.9-5.2-7.6-5.2c-0.6,0-1.2,0-1.7,0
		c-8.8,0-17.6,0-26.4,0c-0.8,0-1.6,0-2.4,0c-2,0-3.7,0.8-5.1,2.2c-1.2,1.2-2,2.7-2.5,4.3c-0.4,1.4-0.4,2.9-0.4,4.3
		C237.3,307.9,237.3,333.9,237.3,359.9z M195.9,43.1c-2.6,0-5.2,0-7.9,0c-3.1,0-6.3,0-9.4,0c-3.1,0-5.4,1.4-7.1,4
		c-1,1.6-1.5,3.3-1.6,5.2c-0.1,2.4,0.6,4.6,1.9,6.6c3.4,5.2,6.7,10.4,10,15.6c10.6,16.5,21.2,32.9,31.7,49.4c2.6,4,2.6,8.1,0.1,12.1
		c-0.3,0.4-0.5,0.9-0.8,1.3c-9.5,14.8-19,29.6-28.6,44.5c-5,7.8-10.1,15.7-15.1,23.5c-1.4,2.2-2.1,4.6-2,7.2c0.3,5.1,4,8.6,9.1,8.7
		c0.2,0,0.4,0,0.7,0c11.1,0,22.1,0,33.2,0c0.5,0,1,0,1.5,0c2.8-0.1,5-1.4,6.6-3.7c0.7-1,1.2-2,1.8-3c7.5-12.3,15-24.6,22.5-36.9
		c0.5-0.7,0.9-1.5,1.4-2.2c1.7-2.3,4.5-2.4,6.3-0.2c0.5,0.6,0.9,1.3,1.3,2c8,12.5,16,25,23.9,37.6c0.5,0.9,1.1,1.7,1.7,2.6
		c1.7,2.5,4,3.7,7,3.8c0.4,0,0.9,0,1.3,0c10.6,0,21.3,0,31.9,0c0.6,0,1.2,0,1.7,0c2.5-0.1,4.6-1.2,6.1-3.3c1.7-2.4,2.4-5.1,1.9-8.1
		c-0.3-1.7-1-3.2-1.9-4.6c-9.6-15-19.1-29.9-28.6-44.9c-5-7.9-10-15.7-15-23.6c-2.7-4.2-2.8-8.5,0-12.7c0.2-0.2,0.3-0.5,0.5-0.7
		c9.9-15.7,19.8-31.4,29.7-47.1c3.6-5.7,7.2-11.5,10.8-17.2c0.9-1.4,1.6-2.9,1.9-4.6c0.5-3.1-0.2-5.9-2.1-8.4c-1.8-2.3-4.3-3-7.2-3
		c-11.5,0.1-23,0-34.5,0c-0.4,0-0.7,0-1.1,0c-2.5,0.1-4.5,1.1-6,3c-0.5,0.6-0.8,1.2-1.2,1.8c-7.2,11.5-14.3,23-21.5,34.5
		c-0.3,0.6-0.7,1.1-1.1,1.6c-1.5,1.9-4.1,2-5.6,0c-0.4-0.4-0.7-1-1-1.4C236,71.1,228.4,59.5,221,47.9c-2.1-3.2-4.7-4.9-8.7-4.8
		C206.8,43.2,201.4,43.1,195.9,43.1z M185.7,271.3c-0.5,0.2-0.8,0.4-1.1,0.6c-3.9,1.9-6.3,5-7.6,9.1c-0.5,1.8-0.7,3.7-0.7,5.6
		c0,48,0,96.1,0,144.1c0,0.4,0,0.7,0,1.1c0.1,3.6,1,7.1,3,10.1c3,4.5,7.1,7,12.6,7c6.1,0,12.2,0,18.3,0c1,0,2,0,3-0.3
		c4.4-0.9,7.6-3.5,9.9-7.3c2-3.3,2.7-7,2.7-10.9c0-47.9,0-95.8,0-143.7c0-1.5-0.1-3.1-0.4-4.5c-1-4.6-3.4-8.3-7.9-10.4
		c-0.4-0.2-0.8-0.4-1.1-0.6c-0.2-6.8-3.5-11.6-9.5-14.6c0-0.8-0.1-1.5-0.1-2.2c0-3.3,0-6.7,0-10c0-0.6,0-1.2,0-1.7
		c-0.2-1.6-1.3-2.9-3-2.9c-1.8-0.1-3.6-0.1-5.5,0c-1.5,0.1-2.6,1-3,2.4c-0.2,0.8-0.3,1.6-0.3,2.4c0,3.3,0,6.7,0,10
		c0,0.7,0,1.4-0.1,2.2C189.1,259.8,185.8,264.5,185.7,271.3z M348.7,42.9c-0.1,0.1-0.1,0.2-0.2,0.2c-0.2,0.1-0.5,0.3-0.7,0.4
		c-3.9,1.8-6.3,4.8-7.6,8.8c-0.7,2.1-0.8,4.3-0.8,6.5c0,47.6,0,95.2,0,142.8c0,1.2,0.1,2.5,0.2,3.7c0.3,3.8,1.7,7.2,4.2,10.1
		c2.8,3.3,6.4,5.2,10.9,5.1c6.4,0,12.8,0,19.2,0c1.4,0,2.8-0.1,4.1-0.6c4.4-1.5,7.4-4.5,9.3-8.7c1.3-2.7,1.8-5.7,1.8-8.7
		c0-48.1,0-96.2,0-144.3c0-1.4-0.1-2.9-0.4-4.3c-1-4.7-3.6-8.4-8.1-10.4c-0.3-0.1-0.6-0.4-0.9-0.5c-0.2-6.7-3.4-11.5-9.4-14.5
		c0-0.7,0-1.5,0-2.2c0-3.4,0-6.8,0-10.3c0-0.8-0.1-1.6-0.3-2.4c-0.4-1.3-1.3-2.1-2.7-2.1c-1.9,0-3.8-0.1-5.7,0
		c-1.6,0.1-2.7,1.1-3,2.7c-0.1,0.6-0.1,1.2-0.1,1.7c0,3.4,0,6.8,0,10.3c0,0.7,0,1.4,0,2.2C352.1,31.4,348.9,36.2,348.7,42.9z
		 M311.1,467.8c-0.2,0.3-0.2,0.5-0.3,0.6c0,0.5-0.1,1-0.1,1.5c0,5.6,0,11.2,0.1,16.8c0,0.1,0,0.1,0.1,0.2c0,0.1,0.1,0.1,0.2,0.2
		c0.1,0,0.3,0.2,0.5,0.2c4,0,8,0,12,0c0.2,0,0.5,0,0.6-0.1c0.2-0.2,0.4-0.4,0.4-0.7c0-0.2-0.3-0.6-0.5-0.6c-0.5-0.1-1-0.1-1.5-0.1
		c-2.8,0-5.7,0-8.5,0c-0.6,0-1.1-0.1-1.6-0.2c-0.3-2-0.3-5.8,0-7.6c0.5,0,1.1-0.1,1.6-0.1c2.2,0,4.4,0,6.5,0c0.5,0,1,0,1.5-0.1
		c0.6-0.1,0.6-0.5,0.4-1.1c-0.5,0-1.1-0.1-1.6-0.1c-2.4,0-4.8,0-7.2,0c-0.5,0-1-0.1-1.6-0.2c0-2.4-0.2-4.7,0.2-7.1
		c0.8,0,1.5-0.1,2.2-0.1c2.7,0,5.4,0,8.1,0c0.4,0,0.9,0,1.3-0.1c0.1,0,0.3-0.3,0.3-0.5c0-0.2-0.1-0.5-0.3-0.5
		c-0.4-0.1-0.8-0.2-1.3-0.2c-3.5,0-7,0-10.5,0C312,467.7,311.5,467.7,311.1,467.8z M225,485.7c-0.3-1.7-0.3-6.1-0.2-7.3
		c0-0.2,0.2-0.4,0.4-0.7c0.7,0,1.4,0,2.1,0c2.2,0,4.4,0,6.6,0c0.4,0,0.9,0,1.3-0.2c0.1,0,0.3-0.3,0.3-0.5c0-0.2-0.2-0.5-0.3-0.5
		c-0.4-0.1-0.8-0.2-1.3-0.2c-2.2,0-4.4,0-6.6,0c-0.7,0-1.4,0-2.3-0.1c-0.5-2.5-0.5-4.8,0-7.3c0.8,0,1.5-0.1,2.3-0.1
		c2.5,0,5.1,0,7.6,0c0.5,0,1,0,1.5-0.1c0.2,0,0.5-0.3,0.5-0.5c0-0.2-0.2-0.5-0.4-0.6c-0.2-0.1-0.6-0.1-0.9-0.1c-3.7,0-7.4,0-11.1,0
		c-0.3,0-0.7,0.1-0.9,0.1c-0.1,0.3-0.2,0.4-0.3,0.5c0,0.3-0.1,0.6-0.1,0.9c0,5.8,0,11.6,0.1,17.5c0,0.1,0,0.1,0.1,0.2
		c0,0.1,0.1,0.1,0.2,0.2c0.1,0,0.3,0.2,0.5,0.2c4,0,8,0,12,0c0.2,0,0.5,0,0.6-0.1c0.2-0.2,0.4-0.4,0.4-0.7c0-0.2-0.3-0.6-0.4-0.6
		c-0.5-0.1-1-0.1-1.5-0.1c-2.7,0-5.4,0-8.1,0C226.5,485.7,225.8,485.7,225,485.7z M273.3,482.4c2.1-0.3,9.5-0.3,11.3,0
		c0.5,1.3,1.1,2.6,1.7,3.9c0.1,0.3,0.4,0.6,0.7,0.8c0.1,0.1,0.5,0.1,0.6,0c0.1-0.1,0.3-0.4,0.3-0.5c-0.1-0.5-0.3-1-0.5-1.4
		c-2.3-5.4-4.6-10.8-6.9-16.2c-0.2-0.4-0.4-0.8-0.6-1.2c-0.6,0-1.2,0-1.9,0c-2.6,6.2-5.3,12.3-7.9,18.4c-0.1,0.2-0.1,0.5-0.2,0.8
		c1.2,0.2,1.3,0.2,1.6-0.5C272.1,485.1,272.7,483.7,273.3,482.4z M179.3,468.9c-0.3-0.6-0.3-1-0.5-1.2c-0.2-0.2-0.5-0.1-0.8-0.1
		c-3.8,0-7.6,0-11.3,0c-0.3,0-0.5,0.1-0.9,0.2c-0.2,2.1-0.1,4.2-0.1,6.3c0,2.2,0,4.4,0,6.5c0,2.1-0.2,4.2,0.2,6.2
		c0.3,0.1,0.5,0.2,0.7,0.2c4,0,8,0,12,0c0.2,0,0.5,0,0.6-0.1c0.2-0.2,0.4-0.4,0.4-0.7c0-0.2-0.2-0.6-0.4-0.6c-0.5-0.1-1-0.1-1.5-0.1
		c-2.9,0-5.8,0-8.7,0c-0.6,0-1.1-0.1-1.6-0.2c-0.4-2.4-0.3-6.2,0.1-7.8c0.7,0,1.5,0,2.3,0c2.4,0,4.8,0,7.2,0c0.6,0,0.9-0.3,0.8-0.7
		c-0.1-0.4-0.4-0.6-0.8-0.6c-0.5,0-1,0-1.5,0c-2.3,0-4.7,0-7,0c-0.4,0-0.8-0.1-1.3-0.2c-0.2-1.3-0.2-2.4-0.1-3.6
		c0-1.2-0.3-2.5,0.3-3.7C171.2,468.9,175,468.9,179.3,468.9z M122.1,469c3.3,0,6.3,0,9.4,0c0.7,0,1.3,0,2,0c0.4,0,0.7-0.3,0.6-0.7
		c0-0.2-0.3-0.4-0.6-0.5c-0.2-0.1-0.4-0.1-0.6-0.1c-3.7,0-7.4,0-11.1,0c-0.3,0-0.7,0.1-1,0.2c-0.1,0.4-0.1,0.7-0.1,0.9
		c0,5.7,0,11.5,0,17.2c0,0.3,0.1,0.7,0.2,1c2.1,0.3,11.9,0.3,13.6,0c0.3-0.6,0.2-1-0.4-1.2c-0.6-0.1-1.2-0.1-1.7-0.1
		c-2.7,0-5.4,0-8.1,0c-0.6,0-1.3-0.1-1.9-0.1c-0.4-2-0.4-6,0-7.7c0.5,0,1.1-0.1,1.7-0.1c2.2,0,4.4,0,6.5,0c0.5,0,1,0,1.5,0
		c0.4,0,0.7-0.3,0.6-0.7c0-0.2-0.3-0.5-0.5-0.5c-0.5-0.1-1-0.1-1.5-0.1c-2.4,0-4.8,0-7.2,0c-0.4,0-0.8-0.1-1.4-0.2
		C122,473.8,121.9,471.5,122.1,469z M204.6,480.8c0.9,0,1.6,0,2.3,0c1.5,0,3,0,4.6,0c1.5,0,2.9-0.5,4.1-1.4c2.2-1.7,3-4.6,2.1-7.5
		c-0.8-2.5-2.9-4.2-5.7-4.3c-2.7-0.1-5.4,0-8.1,0c-0.3,0-0.7,0.2-1,0.3c0,0.4-0.1,0.7-0.1,1c0,5.6,0,11.2,0,16.8
		c0,0.3,0,0.6,0.1,0.9c0.1,0.2,0.3,0.5,0.5,0.6c0.4,0.1,0.8-0.1,0.8-0.5c0.1-0.6,0.1-1.1,0.1-1.7
		C204.5,483.7,204.2,482.4,204.6,480.8z M341,469.6c0.4-1,0.1-1.4-0.6-1.6c-2.5-0.7-5-1-7.5-0.3c-1.1,0.3-2,0.9-2.7,1.7
		c-1.6,1.8-1.5,4.4,0.3,6.1c0.9,0.8,1.9,1.3,3,1.7c1.4,0.5,2.8,0.9,4.1,1.4c0.8,0.3,1.6,0.8,2.2,1.3c0.7,0.5,1,1.4,1,2.3
		c0,1.6-0.8,2.6-2.2,3.2c-1.7,0.8-3.5,0.8-5.3,0.4c-1.3-0.3-2.5-0.6-3.8-1c-0.6,0.4-0.5,0.9-0.1,1.3c0.3,0.2,0.6,0.3,1,0.5
		c2.4,0.9,4.9,0.9,7.3,0.6c1.1-0.1,2.1-0.6,2.9-1.3c2.7-2.2,1.9-6.3-0.3-7.5c-0.7-0.4-1.4-0.8-2.1-1.1c-1.4-0.6-2.9-1-4.3-1.6
		c-0.6-0.2-1.2-0.5-1.8-0.8c-2.2-1.2-2-4.3,0.1-5.4c0.7-0.4,1.5-0.6,2.3-0.7c1.7-0.2,3.3-0.1,5,0.3C340,469.4,340.5,469.5,341,469.6
		z M139.2,484.9c-0.1,0.3-0.2,0.7-0.1,0.9c0.1,0.3,0.4,0.6,0.7,0.7c2.5,1,5.1,1.1,7.7,0.8c0.8-0.1,1.6-0.4,2.2-0.8
		c1.4-0.8,2.2-2,2.4-3.7c0.2-2.2-0.7-3.8-2.6-4.8c-1.2-0.6-2.6-1-3.8-1.5c-1.2-0.5-2.5-0.9-3.6-1.5c-2-1-2.1-3.3-0.7-4.7
		c0.7-0.8,1.6-1.2,2.7-1.3c2.1-0.3,4.2-0.1,6.2,0.6c0.2,0.1,0.4,0,0.6,0c0.1-0.2,0.2-0.3,0.2-0.4c0-0.2,0-0.4-0.1-0.7
		c-2.1-0.9-4.2-1.2-6.4-1c-1.2,0.1-2.4,0.5-3.5,1.1c-2.6,1.3-3,6-0.3,7.5c0.7,0.4,1.4,0.8,2.1,1.1c1.4,0.5,2.7,1,4.1,1.5
		c0.8,0.3,1.6,0.6,2.3,1.1c1.2,0.8,1.6,2.1,1.1,3.4c-0.4,1.3-1.3,2.1-2.5,2.5c-1.7,0.6-3.4,0.6-5.2,0.2
		C141.7,485.6,140.5,485.2,139.2,484.9z M184.3,484.9c-0.4,0.7-0.4,1.2,0.2,1.4c3.1,1.3,6.4,1.5,9.6,0.4c1.7-0.6,2.8-1.8,3-3.7
		c0.2-1.9-0.2-3.6-1.9-4.8c-0.7-0.4-1.4-0.8-2.1-1.1c-1.3-0.5-2.6-0.9-3.9-1.4c-0.9-0.3-1.7-0.7-2.5-1.2c-1-0.6-1.3-1.7-1.1-2.9
		c0.4-1.7,1.6-2.6,3.2-2.9c1.9-0.3,3.8-0.2,5.6,0.3c0.5,0.1,1,0.2,1.4,0.3c0.4-1,0.4-1.2-0.3-1.4c-1.9-0.7-3.9-1-6-0.8
		c-1.2,0.1-2.2,0.5-3.3,1c-2.3,1.1-3.4,5.8-0.2,7.6c0.9,0.5,1.8,0.9,2.8,1.3c1.1,0.5,2.3,0.8,3.5,1.2c0.7,0.3,1.5,0.6,2.1,1.1
		c1.3,0.9,1.7,2.3,1.1,3.8c-0.4,1.1-1.2,1.8-2.3,2.1c-1.6,0.5-3.3,0.7-4.9,0.3C186.9,485.6,185.7,485.2,184.3,484.9z M257.7,469.7
		c0.4-1,0.4-1.3-0.3-1.5c-3-1-6-1.2-9-0.2c-3.3,1.1-5.5,3.2-6.3,6.6c-0.3,1.1-0.3,2.3-0.3,3.4c0,3.3,1.5,5.9,4.3,7.6
		c3.7,2.3,7.6,2.2,11.5,1c0.1,0,0.1-0.1,0.2-0.1c0.4-0.2,0.6-0.4,0.5-0.8c-0.1-0.4-0.4-0.6-1-0.4c-0.6,0.1-1.1,0.4-1.7,0.4
		c-1.2,0.1-2.5,0.4-3.7,0.3c-5-0.3-8-3.3-8.6-7.4c-0.5-3.6,1.3-7.3,4.5-8.9c1.6-0.8,3.3-1,5.1-0.9c0.6,0,1.2,0,1.7,0.1
		C255.6,469.2,256.6,469.5,257.7,469.7z M294.1,485.6c0-1-0.1-1.7-0.1-2.4c0-4.4,0-8.9,0-13.3c0-0.6,0-1.2-0.1-1.7
		c0-0.2-0.4-0.4-0.7-0.4c-0.2,0-0.6,0.2-0.7,0.4c-0.1,0.3-0.2,0.7-0.2,1.1c0,5.6,0,11.2,0,16.8c0,0.4,0.2,0.8,0.3,1.1
		c0.3,0.1,0.4,0.1,0.5,0.1c3.9,0,7.7,0,11.6,0c0.2,0,0.5,0,0.6-0.1c0.2-0.2,0.4-0.4,0.4-0.7c0-0.2-0.2-0.6-0.4-0.6
		c-0.5-0.1-1-0.1-1.5-0.1c-2.5,0-4.9,0-7.4,0C295.8,485.7,295.1,485.6,294.1,485.6z M263.9,477.3
		C263.9,477.3,263.9,477.3,263.9,477.3c0,2.8,0,5.5,0,8.3c0,0.4,0.1,0.9,0.2,1.3c0,0.1,0.3,0.3,0.5,0.3c0.2,0,0.5-0.2,0.5-0.3
		c0.1-0.4,0.1-0.9,0.2-1.3c0-3.2,0-6.4,0-9.6c0-2.4,0-4.8,0-7.2c0-0.4,0-0.9-0.6-1c-0.5-0.1-0.8,0.2-0.8,1
		C263.9,471.6,263.9,474.5,263.9,477.3z"/>
	<path class="st1" d="M15.8,360c0-24.5,0-48.9,0-73.4c0-1.7,0-3.5,0.5-5.2c0.8-2.7,2-5.2,4.1-7.1c2.3-2.1,4.9-3.3,8.1-3.3
		c6.6,0.1,13.1,0.1,19.7,0c4.1,0,7.3,1.7,9.7,4.9c2.5,3.4,5,6.8,7.5,10.2c9,12.4,18,24.7,27,37.1c6,8.2,12,16.5,18,24.7
		c0.4,0.6,0.9,1.2,1.4,1.7c1.9,2.1,4.6,1.1,5.7-0.4c0.8-1,1.1-2.2,1.2-3.5c0-0.7,0-1.3,0-2c0-19,0-38,0-57c0-2,0-3.9,0.6-5.8
		c1.1-3.3,2.8-6.2,5.8-8.2c1.7-1.1,3.6-1.8,5.7-1.8c7.3,0,14.6,0,21.8,0c3.8,0,6.7,1.8,8.9,4.7c1.8,2.2,2.8,4.8,3.1,7.6
		c0.2,1.7,0.3,3.3,0.3,5c0,48.2,0,96.4,0,144.6c0,2.6-0.3,5.1-1.2,7.5c-1.1,2.9-3,5.3-5.7,7c-1.6,1-3.3,1.5-5.2,1.5
		c-6.3,0-12.5,0.1-18.8,0c-3.7,0-6.5-1.9-8.7-4.7c-3.4-4.4-6.7-8.8-10.1-13.2c-8.1-10.6-16.2-21.1-24.3-31.7
		c-5.9-7.6-11.7-15.2-17.5-22.9c-1.2-1.5-2.3-3-3.5-4.5c-0.4-0.5-0.8-1-1.3-1.4c-1.2-1.1-3.1-1.1-4.4-0.1c-0.9,0.7-1.6,1.6-1.8,2.7
		c-0.2,1.1-0.3,2.3-0.3,3.5c0,18.9,0,37.9,0,56.8c0,0.9,0,1.8,0,2.6c-0.3,4-2,7.4-5,10.1c-2.1,1.9-4.7,2.8-7.6,2.8
		c-6.8,0-13.5,0-20.3,0c-4.9,0-8.5-2.3-10.9-6.4c-1.4-2.3-2.1-4.8-2.2-7.5c0-0.9,0-1.7,0-2.6C15.8,408.3,15.8,384.1,15.8,360z"/>
	<path class="st2" d="M93.8,222.1c-14-0.1-26.7-2.8-38.5-9.2c-12.3-6.6-21.9-16.1-29-28c-5.2-8.7-8.7-18.1-10.9-27.9
		c-1.2-5.7-1.9-11.5-2.3-17.3c-0.4-5.8-0.3-11.5,0.2-17.2c1-12.5,4-24.5,9.6-35.8c6.4-12.9,15.4-23.4,27.5-31.2
		c8.5-5.4,17.8-8.9,27.7-10.6c6.1-1.1,12.3-1.5,18.5-1.2c16.7,0.7,31.8,5.7,45,16.2c7.7,6.1,14,13.6,18.9,22.1
		c5.1,8.9,8.4,18.3,10.4,28.3c1.8,9.1,2.5,18.3,2.1,27.6c-0.6,13.3-3.2,26.1-8.6,38.3c-5.9,13-14.4,23.9-26.1,32.2
		c-8,5.7-16.8,9.5-26.4,11.7C105.7,221.4,99.4,222,93.8,222.1z M61.1,132.5c0,4,0.3,7.7,1,11.5c1.2,6.1,3.3,11.7,6.9,16.8
		c7.3,10.3,19,14.2,30.7,11.8c6.6-1.4,11.9-5,16-10.2c3.1-3.9,5.2-8.2,6.6-13c2.8-9.6,3-19.4,1.1-29.1c-1-5-2.8-9.8-5.6-14.1
		c-2.9-4.4-6.5-8-11.3-10.4c-4.8-2.5-9.9-3.3-15.2-3c-7.3,0.4-13.5,3.1-18.8,8.2c-4.1,3.9-6.8,8.7-8.6,14
		C61.9,120.7,61.1,126.6,61.1,132.5z"/>
	<path class="st1" d="M237.3,359.9c0-26,0-52,0-78c0-1.5,0-2.9,0.4-4.3c0.5-1.6,1.3-3.1,2.5-4.3c1.4-1.4,3.1-2.2,5.1-2.2
		c0.8,0,1.6,0,2.4,0c8.8,0,17.6,0,26.4,0c0.6,0,1.2,0,1.7,0c3.7-0.1,6.1,1.9,7.6,5.2c0.7,1.5,1,3.2,1,4.9c0,4.3,0,8.6,0,12.9
		c0,11.9,0,23.9,0,35.8c0,1.9,0.2,3.8,1,5.5c1.5,3.2,4,5.1,7.7,5.2c1,0,2,0,3.1,0c4,0.1,6.6-1.9,8.2-5.4c0.9-2.1,1.8-4.1,2.7-6.2
		c3.6-8.3,7.2-16.7,10.8-25c3.6-8.3,7.2-16.7,10.8-25c0.5-1.2,1.1-2.4,1.6-3.6c0.6-1.3,1.6-2.3,2.7-3.1c1-0.7,2.2-1.2,3.5-1.2
		c0.7,0,1.3,0,2,0c9.9,0,19.8,0,29.7,0c0.4,0,0.7,0,1.1,0c2.8-0.1,4.9,1.2,6.4,3.5c2.2,3.3,2.5,6.8,1.1,10.4
		c-0.2,0.6-0.5,1.2-0.8,1.8c-11.4,22.8-22.9,45.7-34.3,68.5c-0.2,0.5-0.5,0.9-0.7,1.4c-2.3,4.5-2.1,8.7,0.8,13
		c13.9,20.7,27.7,41.4,41.5,62.1c0.3,0.5,0.7,1,1,1.5c2.4,4,2.4,8,0.1,12c-1.4,2.5-3.7,3.9-6.6,3.9c-5.1,0-10.2,0-15.3,0
		c-6,0-12.1-0.1-18.1,0c-3.6,0.1-6.1-1.4-7.9-4.4c-5.3-8.5-10.7-17-16-25.5c-5.3-8.4-10.6-16.9-15.9-25.3c-1-1.7-2.1-3.3-3.2-5
		c-1.2-1.8-2.8-3-4.9-3.4c-1.7-0.4-3.5-0.4-5.2,0c-3.3,0.8-5.1,3.1-6.2,6.2c-0.4,1.2-0.5,2.4-0.5,3.7c0,2.8,0,5.5,0,8.3
		c0,11.7,0,23.4,0,35.2c0,1.8-0.3,3.5-1,5.1c-1.1,2.4-2.8,4.2-5.5,4.9c-0.9,0.2-1.9,0.2-2.8,0.2c-8.3,0-16.6,0-24.9,0
		c-1.6,0-3.2,0-4.8,0c-2.5,0-4.5-1.1-6-3.1c-1.4-1.8-2.2-3.9-2.2-6.3c0-0.8,0-1.6,0-2.4C237.3,411.4,237.3,385.6,237.3,359.9z"/>
	<path class="st3" d="M195.9,43.1c5.5,0,10.9,0.1,16.4,0c3.9-0.1,6.6,1.6,8.7,4.8c7.5,11.6,15.1,23.2,22.6,34.8c0.3,0.5,0.6,1,1,1.4
		c1.6,1.9,4.1,1.9,5.6,0c0.4-0.5,0.7-1.1,1.1-1.6c7.2-11.5,14.3-23,21.5-34.5c0.4-0.6,0.8-1.2,1.2-1.8c1.6-1.9,3.6-3,6-3
		c0.4,0,0.7,0,1.1,0c11.5,0,23,0,34.5,0c2.9,0,5.3,0.7,7.2,3c1.9,2.5,2.7,5.3,2.1,8.4c-0.3,1.7-1,3.2-1.9,4.6
		c-3.6,5.7-7.2,11.4-10.8,17.2c-9.9,15.7-19.8,31.4-29.7,47.1c-0.2,0.2-0.3,0.5-0.5,0.7c-2.7,4.2-2.7,8.4,0,12.7
		c5,7.8,10,15.7,15,23.6c9.5,15,19.1,30,28.6,44.9c0.9,1.4,1.6,2.9,1.9,4.6c0.5,3-0.2,5.6-1.9,8.1c-1.5,2.1-3.6,3.1-6.1,3.3
		c-0.6,0-1.2,0-1.7,0c-10.6,0-21.3,0-31.9,0c-0.4,0-0.9,0-1.3,0c-3-0.1-5.3-1.3-7-3.8c-0.6-0.8-1.1-1.7-1.7-2.6
		c-8-12.5-16-25-23.9-37.6c-0.4-0.7-0.8-1.4-1.3-2c-1.8-2.2-4.6-2.1-6.3,0.2c-0.5,0.7-0.9,1.5-1.4,2.2c-7.5,12.3-15,24.6-22.5,36.9
		c-0.6,1-1.2,2-1.8,3c-1.6,2.3-3.8,3.5-6.6,3.7c-0.5,0-1,0-1.5,0c-11.1,0-22.1,0-33.2,0c-0.2,0-0.4,0-0.7,0c-5.1,0-8.8-3.6-9.1-8.7
		c-0.2-2.6,0.5-5,2-7.2c5.1-7.8,10.1-15.7,15.1-23.5c9.5-14.8,19-29.6,28.6-44.5c0.3-0.4,0.5-0.9,0.8-1.3c2.5-4.1,2.5-8.1-0.1-12.1
		c-10.6-16.5-21.2-33-31.7-49.4c-3.3-5.2-6.7-10.4-10-15.6c-1.3-2-2-4.2-1.9-6.6c0.1-1.9,0.6-3.6,1.6-5.2c1.6-2.6,3.9-4,7.1-4
		c3.1,0,6.3,0,9.4,0C190.7,43.1,193.3,43.1,195.9,43.1z"/>
	<path class="st4" d="M185.7,271.3c0.1-6.8,3.4-11.5,9.3-14.6c0-0.8,0.1-1.5,0.1-2.2c0-3.3,0-6.7,0-10c0-0.8,0.1-1.6,0.3-2.4
		c0.4-1.5,1.5-2.4,3-2.4c1.8-0.1,3.6-0.1,5.5,0c1.7,0.1,2.8,1.3,3,2.9c0.1,0.6,0,1.2,0,1.7c0,3.3,0,6.7,0,10c0,0.7,0,1.4,0.1,2.2
		c6,3,9.3,7.8,9.5,14.6c0.4,0.2,0.8,0.4,1.1,0.6c4.4,2.1,6.9,5.7,7.9,10.4c0.3,1.5,0.4,3,0.4,4.5c0,47.9,0,95.8,0,143.7
		c0,3.9-0.7,7.5-2.7,10.9c-2.3,3.8-5.5,6.4-9.9,7.3c-1,0.2-2,0.2-3,0.3c-6.1,0-12.2,0-18.3,0c-5.5,0-9.6-2.5-12.6-7
		c-2-3-2.9-6.5-3-10.1c0-0.4,0-0.7,0-1.1c0-48,0-96.1,0-144.1c0-1.9,0.2-3.8,0.7-5.6c1.2-4.1,3.6-7.2,7.6-9.1
		C184.8,271.8,185.2,271.6,185.7,271.3z"/>
	<path class="st5" d="M348.7,42.9c0.2-6.7,3.4-11.5,9.6-14.5c0-0.8,0-1.5,0-2.2c0-3.4,0-6.8,0-10.3c0-0.6,0-1.2,0.1-1.7
		c0.2-1.6,1.3-2.6,3-2.7c1.9-0.1,3.8,0,5.7,0c1.4,0,2.3,0.8,2.7,2.1c0.2,0.7,0.3,1.6,0.3,2.4c0,3.4,0,6.8,0,10.3c0,0.7,0,1.4,0,2.2
		c6,3,9.2,7.7,9.4,14.5c0.3,0.2,0.6,0.4,0.9,0.5c4.5,2,7.1,5.7,8.1,10.4c0.3,1.4,0.4,2.9,0.4,4.3c0,48.1,0,96.2,0,144.3
		c0,3-0.5,5.9-1.8,8.7c-1.9,4.1-4.9,7.2-9.3,8.7c-1.3,0.5-2.7,0.6-4.1,0.6c-6.4,0-12.8,0-19.2,0c-4.5,0-8-1.8-10.9-5.1
		c-2.5-2.9-3.9-6.3-4.2-10.1c-0.1-1.2-0.2-2.5-0.2-3.7c0-47.6,0-95.2,0-142.8c0-2.2,0.1-4.4,0.8-6.5c1.3-4,3.7-7,7.6-8.8
		c0.3-0.1,0.5-0.3,0.7-0.4C348.5,43,348.6,43,348.7,42.9z"/>
	<path class="st6" d="M76.8,485.9c-0.5,0.2-1,0.5-1.5,0.7c-3.8,1.2-7.6,1.3-11.2-0.6c-3.6-1.8-5.4-4.8-5.3-8.8c0-4,1.8-7,5.5-8.7
		c3.6-1.7,7.3-1.6,11-0.3c0.9,0.3,0.9,0.5,0.6,1.7c-0.5-0.1-1-0.3-1.4-0.4c-2.3-0.9-4.7-1-7.1-0.6c-4.2,0.7-7,4-7.1,8.1
		c-0.1,4,2.1,6.8,5.2,8c3.3,1.3,6.6,1.2,9.9-0.1c0.4-1.8,0.4-4.6,0.1-6.7c-0.4,0-0.8-0.1-1.2-0.2c-1.5,0-2.9,0-4.4,0
		c-0.3,0-0.6-0.1-0.8-0.2c-0.1,0-0.2-0.2-0.2-0.4c0-0.2,0.1-0.4,0.3-0.5c0.1-0.1,0.3-0.1,0.4-0.1c2.4,0,4.8-0.1,7.1,0
		C77.1,478.4,77.2,483.6,76.8,485.9z"/>
	<path class="st7" d="M311.1,467.8c0.5,0,0.9-0.1,1.3-0.1c3.5,0,7,0,10.5,0c0.4,0,0.9,0,1.3,0.2c0.1,0,0.3,0.3,0.3,0.5
		c0,0.2-0.2,0.5-0.3,0.5c-0.4,0.1-0.9,0.1-1.3,0.1c-2.7,0-5.4,0-8.1,0c-0.7,0-1.4,0.1-2.2,0.1c-0.4,2.4-0.2,4.7-0.2,7.1
		c0.6,0.1,1.1,0.2,1.6,0.2c2.4,0,4.8,0,7.2,0c0.6,0,1.1,0.1,1.6,0.1c0.2,0.6,0.2,1-0.4,1.1c-0.5,0.1-1,0.1-1.5,0.1
		c-2.2,0-4.4,0-6.5,0c-0.6,0-1.1,0.1-1.6,0.1c-0.4,1.8-0.4,5.6,0,7.6c0.5,0.1,1.1,0.2,1.6,0.2c2.8,0,5.7,0,8.5,0c0.5,0,1,0,1.5,0.1
		c0.2,0,0.4,0.4,0.5,0.6c0,0.2-0.2,0.5-0.4,0.7c-0.1,0.1-0.4,0.1-0.6,0.1c-4,0-8,0-12,0c-0.2,0-0.4-0.1-0.5-0.2
		c-0.1-0.1-0.2-0.1-0.2-0.2c0-0.1-0.1-0.1-0.1-0.2c0-5.6-0.1-11.2-0.1-16.8c0-0.5,0-1,0.1-1.5C310.8,468.2,310.9,468.1,311.1,467.8z
		"/>
	<path class="st8" d="M225,485.7c0.8,0,1.5,0,2.2,0c2.7,0,5.4,0,8.1,0c0.5,0,1,0,1.5,0.1c0.2,0,0.4,0.4,0.4,0.6
		c0,0.2-0.2,0.5-0.4,0.7c-0.1,0.1-0.4,0.1-0.6,0.1c-4,0-8,0-12,0c-0.2,0-0.4-0.1-0.5-0.2c-0.1-0.1-0.2-0.2-0.2-0.2
		c0-0.1-0.1-0.1-0.1-0.2c0-5.8-0.1-11.6-0.1-17.5c0-0.3,0-0.6,0.1-0.9c0-0.1,0.1-0.3,0.3-0.5c0.3,0,0.6-0.1,0.9-0.1
		c3.7,0,7.4,0,11.1,0c0.3,0,0.6,0,0.9,0.1c0.2,0.1,0.5,0.4,0.4,0.6c0,0.2-0.3,0.5-0.5,0.5c-0.5,0.1-1,0.1-1.5,0.1
		c-2.5,0-5.1,0-7.6,0c-0.7,0-1.4,0-2.3,0.1c-0.5,2.5-0.5,4.8,0,7.3c0.8,0,1.6,0.1,2.3,0.1c2.2,0,4.4,0,6.6,0c0.4,0,0.9,0,1.3,0.2
		c0.1,0,0.3,0.3,0.3,0.5c0,0.2-0.2,0.5-0.3,0.5c-0.4,0.1-0.9,0.2-1.3,0.2c-2.2,0-4.4,0-6.6,0c-0.7,0-1.4,0-2.1,0
		c-0.2,0.3-0.4,0.5-0.4,0.7C224.6,479.6,224.7,484,225,485.7z"/>
	<path class="st9" d="M273.3,482.4c-0.6,1.3-1.2,2.7-1.8,4.1c-0.3,0.7-0.4,0.7-1.6,0.5c0.1-0.3,0.1-0.6,0.2-0.8
		c2.6-6.1,5.3-12.3,7.9-18.4c0.7,0,1.3,0,1.9,0c0.2,0.4,0.4,0.8,0.6,1.2c2.3,5.4,4.6,10.8,6.9,16.2c0.2,0.5,0.4,0.9,0.5,1.4
		c0,0.2-0.1,0.4-0.3,0.5c-0.2,0.1-0.5,0.1-0.6,0c-0.3-0.2-0.5-0.5-0.7-0.8c-0.6-1.3-1.2-2.6-1.7-3.9
		C282.8,482.1,275.4,482,273.3,482.4z M283.8,480.7c-0.7-1.9-1.5-3.8-2.3-5.6c-0.8-1.8-1.5-3.7-2.6-5.6c-1.7,3.5-3,6.9-4.5,10.1
		c-0.1,0.3-0.2,0.7-0.3,1C275.7,480.9,281.4,481,283.8,480.7z"/>
	<path class="st9" d="M98.6,486.9c-1,0.4-1.2,0.4-1.5-0.2c-0.3-0.6-0.6-1.3-0.9-2c-0.4-0.8-0.7-1.6-1.1-2.3c-1.7-0.3-9.2-0.4-11.3,0
		c-0.5,1.2-1.1,2.4-1.6,3.7c-0.1,0.3-0.3,0.7-0.5,0.9c-0.3,0.3-0.8,0.4-1.1-0.1c0.4-1.6,6.7-16.5,8.1-19c0.2-0.1,0.4-0.2,0.6-0.2
		c0.8-0.1,1.4,0.2,1.7,1c0.3,0.8,0.7,1.6,1,2.4c2.1,4.9,4.2,9.9,6.3,14.8C98.4,486.2,98.5,486.6,98.6,486.9z M94.6,480.8
		c-1.7-3.9-3.2-7.6-5.1-11.4c-0.7,1.5-1.2,2.7-1.8,4c-0.5,1.2-1.1,2.4-1.5,3.6c-0.5,1.3-1.3,2.4-1.5,3.9
		C87.9,480.8,91,480.8,94.6,480.8z"/>
	<path class="st10" d="M179.3,468.9c-4.3,0-8.1,0-12,0c-0.6,1.3-0.3,2.5-0.3,3.7c0,1.1-0.1,2.3,0.1,3.6c0.5,0.1,0.9,0.2,1.3,0.2
		c2.3,0,4.7,0,7,0c0.5,0,1,0,1.5,0c0.4,0,0.7,0.1,0.8,0.6c0.1,0.4-0.2,0.7-0.8,0.7c-2.4,0-4.8,0-7.2,0c-0.8,0-1.6,0-2.3,0
		c-0.5,1.5-0.5,5.4-0.1,7.8c0.5,0.1,1.1,0.2,1.6,0.2c2.9,0,5.8,0,8.7,0c0.5,0,1,0,1.5,0.1c0.2,0,0.4,0.4,0.4,0.6
		c0,0.2-0.2,0.5-0.4,0.7c-0.1,0.1-0.4,0.1-0.6,0.1c-4,0-8,0-12,0c-0.2,0-0.4-0.1-0.7-0.2c-0.4-2.1-0.1-4.2-0.2-6.2
		c0-2.2,0-4.4,0-6.5c0-2.1-0.1-4.2,0.1-6.3c0.4-0.1,0.7-0.2,0.9-0.2c3.8,0,7.6,0,11.3,0c0.3,0,0.7,0,0.8,0.1
		C179,468,179.1,468.3,179.3,468.9z"/>
	<path class="st8" d="M122.1,469c-0.2,2.6-0.1,4.8-0.1,7.3c0.5,0.1,0.9,0.2,1.4,0.2c2.4,0,4.8,0,7.2,0c0.5,0,1,0,1.5,0.1
		c0.2,0,0.5,0.3,0.5,0.5c0.1,0.4-0.2,0.7-0.6,0.7c-0.5,0-1,0-1.5,0c-2.2,0-4.4,0-6.5,0c-0.6,0-1.1,0.1-1.7,0.1
		c-0.4,1.7-0.4,5.8,0,7.7c0.6,0,1.2,0.1,1.9,0.1c2.7,0,5.4,0,8.1,0c0.6,0,1.2,0,1.7,0.1c0.6,0.1,0.8,0.6,0.4,1.2
		c-1.7,0.3-11.5,0.3-13.6,0c-0.1-0.3-0.2-0.6-0.2-1c0-5.7,0-11.5,0-17.2c0-0.3,0.1-0.6,0.1-0.9c0.4-0.1,0.7-0.2,1-0.2
		c3.7,0,7.4,0,11.1,0c0.2,0,0.5,0,0.6,0.1c0.2,0.1,0.5,0.3,0.6,0.5c0.1,0.4-0.2,0.7-0.6,0.7c-0.7,0-1.3,0-2,0
		C128.5,469,125.4,469,122.1,469z"/>
	<path class="st11" d="M204.6,480.8c-0.4,1.6-0.2,2.9-0.2,4.2c0,0.6,0,1.2-0.1,1.7c-0.1,0.4-0.5,0.6-0.8,0.5
		c-0.2-0.1-0.4-0.4-0.5-0.6c-0.1-0.3-0.1-0.6-0.1-0.9c0-5.6,0-11.2,0-16.8c0-0.3,0.1-0.6,0.1-1c0.3-0.1,0.6-0.3,1-0.3
		c2.7,0,5.4-0.1,8.1,0c2.8,0.1,4.9,1.7,5.7,4.3c0.9,2.9,0.1,5.8-2.1,7.5c-1.2,0.9-2.6,1.3-4.1,1.4c-1.5,0-3,0-4.6,0
		C206.2,480.8,205.5,480.8,204.6,480.8z M204.6,469.2c-0.5,2.2-0.5,8.3,0,10.1c0.3,0,0.6,0.2,1,0.2c1.9,0,3.8,0.1,5.7,0
		c3.5-0.1,5.4-2.3,5.2-5.8c-0.2-2.5-1.7-4.2-4.1-4.6C211.4,468.9,206,469,204.6,469.2z"/>
	<path class="st12" d="M113.6,469.6c-0.7-0.2-1.3-0.3-1.9-0.4c-1.6-0.4-3.2-0.4-4.8-0.3c-0.9,0.1-1.7,0.4-2.4,0.9
		c-1.9,1.3-1.9,3.9,0,5.1c0.5,0.3,1,0.5,1.6,0.7c1.2,0.4,2.5,0.8,3.7,1.3c0.9,0.4,1.9,0.7,2.8,1.3c3,1.8,3.2,6,0.2,8
		c-0.7,0.5-1.6,0.9-2.4,1c-2.7,0.4-5.4,0.3-7.9-0.7c-0.8-0.3-0.8-0.5-0.4-1.6c1.2,0.3,2.5,0.7,3.8,1c1.8,0.4,3.6,0.3,5.4-0.4
		c1.2-0.5,2-1.4,2.2-2.8c0.2-1.3-0.2-2.5-1.4-3.2c-0.6-0.4-1.3-0.7-2-0.9c-1.3-0.5-2.6-0.8-3.9-1.4c-1-0.4-2-0.9-2.9-1.6
		c-2.1-1.7-2.2-4.4-0.4-6.4c0.7-0.8,1.6-1.3,2.6-1.5c2.5-0.7,5-0.4,7.5,0.3C113.6,468.3,113.6,468.3,113.6,469.6z"/>
	<path class="st6" d="M341,469.6c-0.6-0.1-1.1-0.2-1.5-0.4c-1.6-0.4-3.3-0.6-5-0.3c-0.8,0.1-1.6,0.3-2.3,0.7c-2,1.1-2.2,4.2-0.1,5.4
		c0.6,0.3,1.2,0.5,1.8,0.8c1.4,0.5,2.9,1,4.3,1.6c0.7,0.3,1.4,0.7,2.1,1.1c2.2,1.2,3,5.3,0.3,7.5c-0.9,0.7-1.9,1.2-2.9,1.3
		c-2.5,0.3-4.9,0.3-7.3-0.6c-0.3-0.1-0.7-0.2-1-0.5c-0.5-0.4-0.5-0.9,0.1-1.3c1.2,0.3,2.5,0.7,3.8,1c1.8,0.4,3.6,0.3,5.3-0.4
		c1.4-0.6,2.2-1.7,2.2-3.2c0-0.9-0.3-1.8-1-2.3c-0.7-0.5-1.5-1-2.2-1.3c-1.3-0.5-2.8-0.9-4.1-1.4c-1.1-0.4-2.2-0.9-3-1.7
		c-1.8-1.7-1.9-4.2-0.3-6.1c0.7-0.8,1.7-1.4,2.7-1.7c2.5-0.7,5-0.4,7.5,0.3C341.1,468.2,341.4,468.6,341,469.6z"/>
	<path class="st13" d="M139.2,484.9c1.3,0.3,2.5,0.7,3.7,0.9c1.7,0.4,3.5,0.3,5.2-0.2c1.2-0.4,2.1-1.2,2.5-2.5
		c0.4-1.4,0-2.7-1.1-3.4c-0.7-0.5-1.5-0.8-2.3-1.1c-1.4-0.5-2.7-1-4.1-1.5c-0.7-0.3-1.4-0.7-2.1-1.1c-2.7-1.5-2.4-6.2,0.3-7.5
		c1.1-0.6,2.3-1,3.5-1.1c2.2-0.2,4.3,0.1,6.4,1c0,0.3,0.1,0.5,0.1,0.7c0,0.1-0.1,0.2-0.2,0.4c-0.2,0-0.4,0.1-0.6,0
		c-2-0.6-4.1-0.8-6.2-0.6c-1.1,0.1-2,0.5-2.7,1.3c-1.4,1.5-1.3,3.8,0.7,4.7c1.2,0.6,2.4,1,3.6,1.5c1.3,0.5,2.6,0.9,3.8,1.5
		c2,1,2.9,2.6,2.6,4.8c-0.2,1.6-1,2.9-2.4,3.7c-0.7,0.4-1.5,0.7-2.2,0.8c-2.6,0.3-5.2,0.3-7.7-0.8c-0.3-0.1-0.6-0.4-0.7-0.7
		C139,485.5,139.1,485.2,139.2,484.9z"/>
	<path class="st14" d="M184.3,484.9c1.4,0.3,2.6,0.7,3.9,0.9c1.7,0.4,3.3,0.2,4.9-0.3c1.1-0.3,1.9-1.1,2.3-2.1
		c0.6-1.5,0.3-2.9-1.1-3.8c-0.7-0.4-1.4-0.8-2.1-1.1c-1.1-0.4-2.3-0.8-3.5-1.2c-0.9-0.4-1.9-0.8-2.8-1.3c-3.3-1.8-2.1-6.5,0.2-7.6
		c1.1-0.5,2.1-0.9,3.3-1c2.1-0.2,4.1,0.1,6,0.8c0.7,0.2,0.7,0.4,0.3,1.4c-0.5-0.1-1-0.2-1.4-0.3c-1.9-0.5-3.7-0.6-5.6-0.3
		c-1.6,0.3-2.8,1.1-3.2,2.9c-0.3,1.1,0.1,2.3,1.1,2.9c0.8,0.5,1.7,0.9,2.5,1.2c1.3,0.5,2.6,0.9,3.9,1.4c0.7,0.3,1.5,0.6,2.1,1.1
		c1.7,1.1,2.2,2.8,1.9,4.8c-0.2,1.9-1.3,3.1-3,3.7c-3.2,1.1-6.4,0.8-9.6-0.4C184,486.1,183.9,485.6,184.3,484.9z"/>
	<path class="st15" d="M257.7,469.7c-1-0.3-2.1-0.5-3.1-0.7c-0.6-0.1-1.2-0.1-1.7-0.1c-1.8,0-3.4,0.2-5.1,0.9
		c-3.2,1.5-5,5.3-4.5,8.9c0.6,4.1,3.6,7.1,8.6,7.4c1.2,0.1,2.5-0.1,3.7-0.3c0.6-0.1,1.1-0.3,1.7-0.4c0.7-0.2,1,0,1,0.4
		c0.1,0.4-0.2,0.7-0.5,0.8c-0.1,0-0.1,0.1-0.2,0.1c-4,1.2-7.9,1.3-11.5-1c-2.8-1.7-4.2-4.3-4.3-7.6c0-1.1,0-2.3,0.3-3.4
		c0.9-3.4,3.1-5.5,6.3-6.6c3-1,6-0.8,9,0.2C258.1,468.4,258.1,468.7,257.7,469.7z"/>
	<path class="st16" d="M294.1,485.6c1,0,1.7,0.1,2.4,0.1c2.5,0,4.9,0,7.4,0c0.5,0,1,0,1.5,0.1c0.2,0,0.4,0.4,0.4,0.6
		c0,0.2-0.2,0.5-0.4,0.7c-0.1,0.1-0.4,0.1-0.6,0.1c-3.9,0-7.7,0-11.6,0c-0.1,0-0.3-0.1-0.5-0.1c-0.1-0.3-0.3-0.7-0.3-1.1
		c0-5.6,0-11.2,0-16.8c0-0.4,0-0.7,0.2-1.1c0.1-0.2,0.5-0.4,0.7-0.4c0.2,0,0.6,0.2,0.7,0.4c0.1,0.6,0.1,1.2,0.1,1.7
		c0,4.4,0,8.9,0,13.3C294.1,483.9,294.1,484.6,294.1,485.6z"/>
	<path class="st17" d="M263.9,477.3c0-2.8,0-5.7,0-8.5c0-0.8,0.3-1.1,0.8-1c0.6,0.1,0.6,0.6,0.6,1c0,2.4,0,4.8,0,7.2
		c0,3.2,0,6.4,0,9.6c0,0.4,0,0.9-0.2,1.3c0,0.1-0.3,0.3-0.5,0.3c-0.2,0-0.5-0.1-0.5-0.3c-0.1-0.4-0.2-0.8-0.2-1.3
		C263.9,482.8,263.9,480.1,263.9,477.3C263.9,477.3,263.9,477.3,263.9,477.3z"/>
	<path class="st18" d="M61.1,132.5c-0.1-5.9,0.7-11.9,2.8-17.6c1.8-5.3,4.6-10.1,8.6-14c5.2-5.1,11.5-7.8,18.8-8.2
		c5.3-0.3,10.4,0.6,15.2,3c4.7,2.4,8.4,6,11.3,10.4c2.8,4.3,4.6,9.1,5.6,14.1c2,9.8,1.7,19.5-1.1,29.1c-1.4,4.7-3.5,9.1-6.6,13
		c-4.2,5.3-9.4,8.9-16,10.2c-11.8,2.4-23.4-1.5-30.7-11.8c-3.6-5.1-5.7-10.8-6.9-16.8C61.4,140.3,61.1,136.5,61.1,132.5z"/>
</g>
</svg>
